<svg width="128" height="127" viewBox="0 0 128 127" fill="none" xmlns="http://www.w3.org/2000/svg">
<rect x="0.91626" y="-0.00830078" width="127" height="127" rx="36" fill="#DD0426"/>
<path fill-rule="evenodd" clip-rule="evenodd" d="M36.768 81.7092H35.5621C26.4649 81.7092 21.9163 78.3877 21.9163 71.7446V46.9917H55.1347H56.2529H63.5972H66.0151H106.947V56.9563H92.666V81.7092H91.4601C82.3629 81.7092 77.8143 78.3877 77.8143 71.7446V56.9563H69.8988V62.8589C69.8988 65.5246 69.1794 67.7037 67.7408 69.3962C66.3445 71.0464 64.1866 72.0408 61.267 72.3793L69.8988 81.7092H52.7622L44.7651 72.8235H36.768V81.7092ZM51.3024 56.9563H36.768V62.8589H51.3024C53.6719 62.8589 54.9201 62.1185 55.047 60.6375V59.4316C55.047 57.7814 53.7988 56.9563 51.3024 56.9563Z" fill="white"/>
</svg>
